<svg width="491" height="124" viewBox="0 0 491 124" fill="none" xmlns="http://www.w3.org/2000/svg">
<g clip-path="url(#clip0)">
<path d="M355.528 19.9288C331.57 8.00286 307.906 6.73559 293.183 10.9972C265.971 18.8938 257.534 52.2858 282.746 68.6464C284.271 69.636 283.314 71.7197 281.4 75.0526C279.038 79.1883 274.652 87.3352 266.915 93.2071C262.248 96.7554 259.224 98.22 263.059 102.594C263.059 102.594 271.585 111.803 277.879 114.488C285.472 117.693 287.372 117.161 293.024 112.048C296.574 108.836 303.617 100.049 312.115 86.071C316.521 78.8013 322.418 78.6616 321.614 90.6225C321.614 90.6225 320.453 102.134 320.136 104.514C319.186 111.375 319.925 113.757 326.284 113.816C326.284 113.816 339.96 113.078 344.702 112.438C351.379 111.56 351.016 110.518 352.764 105.432C362.106 78.2928 362.898 31.7 362.898 31.7C363.293 25.4638 361.248 22.7851 355.528 19.9288ZM338.034 45.0556C338.034 45.0556 329.551 50.6756 329.339 50.8212C328.62 51.3691 327.63 52.0081 327.498 54.6079C327.446 55.69 327.116 63.3619 327.096 64.3119C327.076 65.3728 326.601 68.264 323.144 65.3136C323.144 65.3136 317.364 60.4251 316.507 59.6936C316.316 59.5358 314.329 57.3716 311.242 58.657L302.192 62.1462C302.192 62.1462 296.742 64.2907 298.774 59.5677C300.741 54.9767 302.06 51.1506 302.494 49.9228C302.943 48.6434 302.784 46.8358 301.684 45.5685C301.175 45.0009 296.836 39.4599 295.838 38.0879C295.838 38.0879 292.27 33.9841 298.219 34.2618C298.219 34.2618 308.378 34.4788 308.536 34.4986C308.708 34.5122 310.608 34.6367 311.968 32.5726C313.643 30.0335 318.551 24.0827 317.528 25.3424C318.386 24.3073 320.379 21.7075 321.697 26.0086C321.697 26.0086 323.564 31.6817 324.449 34.0569C325.056 35.6672 325.439 36.7675 328.46 37.6978L337.794 40.9563C337.797 40.9593 342.157 42.2585 338.034 45.0556Z" fill="#0862AD"/>
<path d="M379.929 42.899C378.928 44.3833 371.024 55.9602 370.034 73.7657C369.605 81.6819 373.208 88.6602 379.684 92.4529C386.867 96.6614 396.196 96.3184 404.627 91.4968C422.736 81.1462 424.768 55.083 424.259 43.321C424.147 40.5967 422.491 38.9667 419.714 38.8483C418.653 38.7952 416.357 38.8757 413.765 39.0927C411.133 39.3097 409.556 41.0854 409.432 43.9614L409.404 44.7263C409.286 55.6506 408.52 65.3547 403.599 71.3177C400.38 75.2576 396.534 76.8268 394.001 75.8039C391.739 74.907 390.288 71.9778 390.643 68.9759C391.506 61.5089 394.774 55.6369 396.792 51.8837L397.656 50.2552C398.89 47.7283 398.269 45.0375 396.197 44.0009C394.997 43.3938 392.377 42.4574 390.063 41.6318L387.272 40.6286C385.287 39.8773 382.358 39.29 379.929 42.899Z" fill="#73BD45"/>
<path d="M443.391 35.2863C435.527 39.3506 431.49 44.8977 430.659 52.7472C429.53 63.3361 444.446 70.7166 447.994 72.5772C452.27 74.8249 452.428 77.4247 451.32 78.9697C449.571 81.3844 444.728 80.7044 441.16 79.3127C437.243 77.8163 435.249 76.0011 432.024 72.3799C430.13 70.2567 424.378 76.3381 423.481 80.58C423.067 82.5181 423.85 83.4363 425.071 85.1695C428.204 89.6026 438.284 97.4855 452.895 98.5478C456.926 98.8438 467.415 99.076 474.493 92.7093C477.356 90.149 480.476 85.8888 481.558 80.8152C482.296 77.2988 482.244 72.7078 479.407 68.5174C475.43 62.6273 468.8 58.7284 461.437 55.3773C450.697 50.4889 452.769 47.5992 455.17 46.2682C457.425 45.0025 465.065 45.8918 471.056 51.3874C474.089 54.1708 480.383 45.5291 477.771 42.5878C468.207 31.8684 451.966 30.8592 443.391 35.2863Z" fill="#EA1A5B"/>
<path d="M229.884 40.4841C223.353 44.5485 220.246 49.654 220.098 56.5275C219.887 65.8097 232.749 71.9578 235.979 73.348C239.853 75.0175 240.401 77.0102 239.706 78.5066C238.694 80.7361 236.385 81.1444 233.673 80.598C228.756 79.5887 224.919 75.2876 221.051 73.1234C218.861 71.9229 215.631 76.092 215.161 79.8467C214.942 81.5481 215.47 82.5042 216.882 83.7047C220.503 86.8509 227.967 94.1934 242.773 94.8475C246.293 94.9993 255.44 94.2996 261.125 88.2972C263.431 85.8628 265.845 82.6438 266.413 78.1576C266.795 75.0706 266.083 71.3037 263.646 67.6233C261.608 64.55 257.883 61.4752 251.359 58.7646C240.775 54.4104 244.118 50.0167 246.63 49.1926C248.78 48.4808 252.546 49.0347 258.811 52.8016C262.207 54.846 266.704 46.8189 263.903 44.8065C249.852 34.6851 237.026 36.051 229.884 40.4841Z" fill="#EA1A5B"/>
<path d="M70.1445 25.1445C73.8555 25.5352 77.8594 26.9219 82.1562 29.3047C86.4531 31.6484 87.7617 35.8477 86.082 41.9023C84.4414 47.957 80.6914 50.457 74.832 49.4023C68.9727 48.3086 63.8164 48.0938 59.3633 48.7578C54.9102 49.4219 50.8477 50.8672 47.1758 53.0938C43.543 55.3203 40.9258 58.4062 39.3242 62.3516C37.7617 66.2969 38.5234 71.2773 41.6094 77.293C43.8359 81.668 47.5078 84.5781 52.625 86.0234C57.7422 87.4688 62.7617 87.6641 67.6836 86.6094C71.3945 85.7891 74.8906 83.0742 78.1719 78.4648C81.4922 73.8555 85.75 72.6836 90.9453 74.9492C96.1797 77.1758 97.293 80.9258 94.2852 86.1992C91.2773 91.4336 88.9336 94.832 87.2539 96.3945C86.082 97.4492 84.9102 98.4062 83.7383 99.2656C80.4961 101.531 77.1172 103.035 73.6016 103.777C70.0859 104.48 66.5312 104.852 62.9375 104.891C58.1719 105.008 53.5039 104.441 48.9336 103.191C45.2617 102.215 41.6875 100.789 38.2109 98.9141C34.7734 97 31.6289 94.5391 28.7773 91.5312C23.4648 86.0625 19.5195 79.7344 16.9414 72.5469C12.8398 61.4922 14.1484 51.7461 20.8672 43.3086C24.2266 39.0117 28.2305 35.6328 32.8789 33.1719C37.5664 30.6719 42.1758 28.7773 46.707 27.4883C50.4961 26.4336 54.4219 25.6914 58.4844 25.2617C62.5469 24.793 66.4336 24.7539 70.1445 25.1445Z" fill="#EA1A5B"/>
<path d="M138.688 35.4688C145.219 35.6562 153.875 54.0156 164.656 90.5469C165.219 92.4219 165.188 93.5781 164.562 94.0156C158.094 99.5781 152.547 102.297 147.922 102.172L147.078 102.125C145.328 102.062 144 98.5625 143.094 91.625C132.094 93.0312 124.328 93.3906 119.797 92.7031C118.609 98.4219 117.375 101.266 116.094 101.234L115.203 101.188C107.734 100.969 101.766 98.7812 97.2969 94.625L97.3438 93.7344C101.812 77.5781 108.312 61.6875 116.844 46.0625C121.125 39.2812 124.859 35.9375 128.047 36.0312C131.422 35.4375 134.969 35.25 138.688 35.4688ZM125.281 79.9062C128.156 80.5625 132.766 80.7031 139.109 80.3281L132.734 62.375L125.281 79.9062Z" fill="#F48120"/>
<path d="M163.121 30.1767C186.095 29.9992 193.862 29.556 214.586 26.1533C219.258 25.3808 219.64 27.7029 220.403 29.1948C221.036 30.4347 222.253 36.9122 222.171 38.5756C222.085 40.2238 222.911 42.6384 220.114 43.4246C211.387 45.8589 209.1 46.6178 203.305 48.3328C200.63 49.1371 200.798 50.2587 200.874 52.3045C201.285 63.6507 205.063 78.6515 207.737 87.0352C208.864 90.5714 209.37 93.0907 206.899 94.0272C203.466 95.2868 193.894 97.8866 191.328 98.4224C186.884 99.3512 186.242 96.0927 185.823 94.4233C182.053 79.3314 180.183 63.9603 179.816 58.2144C179.628 55.2853 178.669 52.5413 175.914 52.6141C173.081 52.6673 169.915 53.0163 163.753 53.1286C160.458 53.2015 158.713 52.9966 158.274 50.1798C157.831 47.3417 157.954 34.5173 158.438 32.5261C158.927 30.5061 161.261 30.1965 163.121 30.1767Z" fill="#73BD45"/>
</g>
<defs>
<clipPath id="clip0">
<rect width="491" height="124" fill="white"/>
</clipPath>
</defs>
</svg>
